<svg width="36" height="36" fill="none" xmlns="http://www.w3.org/2000/svg"><circle cx="18" cy="18" r="18" fill="#0075FF"/><path d="M16.095 20.684c0-.532.184-.982.553-1.35A1.84 1.84 0 0118 18.78c.533 0 .983.184 1.352.552.369.369.553.819.553 1.351s-.184.983-.553 1.351a1.84 1.84 0 01-1.352.553 1.84 1.84 0 01-1.352-.553 1.837 1.837 0 01-.553-1.35zm-6.483 2.763c-.308.369-.686.553-1.137.553-.41 0-.758-.143-1.045-.43A1.42 1.42 0 017 22.526c0-.368.102-.665.307-.89l7.467-10.04c.348-.47.809-.849 1.382-1.136A3.848 3.848 0 0118 10a3.99 3.99 0 011.751.4 3.582 3.582 0 011.352 1.104l7.467 9.979c.123.143.225.306.307.49.082.164.123.349.123.553 0 .41-.143.758-.43 1.044-.287.287-.635.43-1.045.43-.491 0-.88-.194-1.167-.583l-7.16-9.549a4.65 4.65 0 00-.553-.521c-.205-.205-.42-.307-.645-.307-.225 0-.45.102-.676.307a3.749 3.749 0 00-.492.521l-7.22 9.58z" fill="#fff"/></svg>