<svg width="34" height="34" fill="none" xmlns="http://www.w3.org/2000/svg"><g clip-path="url(#clip0_2_53)"><path d="M34 17a17 17 0 11-34 0 17 17 0 0134 0zm-16.39-4.45c-1.653.689-4.96 2.112-9.915 4.271-.804.32-1.227.634-1.265.94-.063.516.585.72 1.466.998l.372.117c.867.283 2.036.612 2.642.625.552.013 1.166-.212 1.844-.68 4.63-3.126 7.021-4.705 7.17-4.739.106-.025.255-.055.353.034.1.088.089.255.078.3-.063.274-2.607 2.637-3.922 3.861-.41.383-.702.652-.761.714-.131.134-.264.266-.4.395-.807.778-1.41 1.36.032 2.312.695.46 1.252.835 1.806 1.214.604.412 1.207.822 1.99 1.336.197.128.388.266.573.398.704.501 1.339.952 2.119.88.455-.043.924-.468 1.162-1.743.563-3.011 1.67-9.533 1.925-12.22a3.03 3.03 0 00-.027-.67.716.716 0 00-.242-.461 1.118 1.118 0 00-.66-.198c-.637.01-1.62.353-6.34 2.316z" fill="#0075FF"/></g><defs><clipPath id="clip0_2_53"><path fill="#fff" d="M0 0h34v34H0z"/></clipPath></defs></svg>