<svg width="34" height="34" fill="none" xmlns="http://www.w3.org/2000/svg"><g clip-path="url(#clip0_2_55)"><path d="M17 34c9.389 0 17-7.611 17-17S26.389 0 17 0 0 7.611 0 17s7.611 17 17 17z" fill="#0075FF"/><path d="M25.832 11.78a7.047 7.047 0 01-1.995.548 3.493 3.493 0 001.527-1.922 7.205 7.205 0 01-2.208.837 3.477 3.477 0 00-5.924 3.164 9.844 9.844 0 01-7.165-3.623 3.405 3.405 0 00-.471 1.75c0 1.209.614 2.271 1.547 2.896a3.495 3.495 0 01-1.574-.435v.043a3.474 3.474 0 002.79 3.41c-.293.08-.602.12-.917.12-.223 0-.435-.02-.648-.06a3.482 3.482 0 003.254 2.413 6.964 6.964 0 01-4.31 1.488c-.275 0-.55-.017-.826-.047a9.882 9.882 0 005.339 1.56c6.391 0 9.888-5.295 9.888-9.88 0-.146 0-.296-.01-.445a7.047 7.047 0 001.736-1.8l-.033-.017z" fill="#1E1E1E"/></g><defs><clipPath id="clip0_2_55"><path fill="#fff" d="M0 0h34v34H0z"/></clipPath></defs></svg>