<svg width="18" height="18" viewBox="0 0 18 18" fill="none" xmlns="http://www.w3.org/2000/svg">
<path d="M11.4429 6.77388C11.4429 8.1 10.3702 9.17265 9.04408 9.17265C7.71796 9.17265 6.64531 8.1 6.64531 6.77388C6.64531 5.44775 7.71796 4.3751 9.04408 4.3751C10.3702 4.3751 11.4429 5.45143 11.4429 6.77388ZM9 0C4.03714 0 0 4.03714 0 9C0 13.9629 4.03714 18 9 18C13.9629 18 18 13.9629 18 9C18 4.03714 13.9629 0 9 0ZM13.1253 14.8665C12.8241 12.4531 11.8322 9.98082 9.04408 9.98082C6.23388 9.98082 5.24939 12.4898 4.95551 14.9216C3.06735 13.6286 1.82571 11.4576 1.82571 9C1.82571 5.04367 5.04367 1.82571 9 1.82571C12.9563 1.82571 16.1743 5.04367 16.1743 9C16.1743 11.4208 14.9694 13.5661 13.1253 14.8665Z" fill="white"/>
</svg>
