<svg width="187" height="17" viewBox="0 0 187 17" fill="none" xmlns="http://www.w3.org/2000/svg">
<path d="M22.6347 12.9389C23.4476 12.9389 24.1171 12.7955 24.6431 12.5086C25.1691 12.1977 25.5756 11.8271 25.8625 11.3968C26.1733 10.9664 26.3766 10.5002 26.4722 9.99805C26.5918 9.47204 26.6515 8.99384 26.6515 8.56347C26.6515 8.1331 26.5918 7.66686 26.4722 7.16475C26.3766 6.63874 26.1733 6.16055 25.8625 5.73017C25.5756 5.2998 25.1691 4.94115 24.6431 4.65424C24.1171 4.34341 23.4476 4.188 22.6347 4.188H8.14544C7.3086 4.188 6.62718 4.34341 6.10116 4.65424C5.59906 4.94115 5.1926 5.2998 4.88177 5.73017C4.59485 6.16055 4.39162 6.63874 4.27207 7.16475C4.17643 7.66686 4.12861 8.1331 4.12861 8.56347C4.12861 8.99384 4.17643 9.47204 4.27207 9.99805C4.39162 10.5002 4.59485 10.9664 4.88177 11.3968C5.1926 11.8271 5.59906 12.1977 6.10116 12.5086C6.62718 12.7955 7.3086 12.9389 8.14544 12.9389H22.6347ZM29.9869 8.56347C29.9869 9.47204 29.8315 10.3926 29.5207 11.325C29.2338 12.2336 28.8034 13.0704 28.2296 13.8356C27.6558 14.5768 26.9624 15.1865 26.1494 15.6646C25.3365 16.1428 24.416 16.3819 23.3879 16.3819H7.03364C6.05335 16.3341 5.18064 16.0711 4.41553 15.5929C3.65042 15.0908 2.9929 14.4692 2.44298 13.728C1.91697 12.9868 1.5105 12.1619 1.22359 11.2533C0.936671 10.3447 0.793213 9.44813 0.793213 8.56347C0.793213 7.6549 0.936671 6.74633 1.22359 5.83777C1.53441 4.90529 1.97674 4.06845 2.55058 3.32725C3.12441 2.56214 3.81779 1.94049 4.63072 1.46229C5.44365 0.984099 6.36417 0.745003 7.39229 0.745003H23.7465C24.7268 0.792822 25.5995 1.06778 26.3646 1.56989C27.1297 2.04808 27.7753 2.65778 28.3013 3.39898C28.8512 4.14018 29.2697 4.96506 29.5566 5.87363C29.8435 6.7822 29.9869 7.67881 29.9869 8.56347Z" fill="white"/>
<path d="M61.6217 14.6604C61.6217 15.1386 61.4543 15.5451 61.1196 15.8798C60.7849 16.2146 60.3784 16.3819 59.9002 16.3819C59.6611 16.3819 59.4459 16.3341 59.2547 16.2385C59.0634 16.1428 58.884 16.0233 58.7167 15.8798C58.5732 15.7364 58.4656 15.6168 58.3939 15.5212C57.4136 14.3018 56.3974 13.3454 55.3454 12.652C54.3173 11.9586 53.2294 11.4326 52.0817 11.074C50.9341 10.7153 49.7147 10.5002 48.4236 10.4284C47.1563 10.3328 45.7935 10.285 44.335 10.285H37.0186V14.6604C37.0186 15.1386 36.8393 15.5451 36.4807 15.8798C36.1459 16.2146 35.7514 16.3819 35.2971 16.3819C34.8189 16.3819 34.4125 16.2146 34.0777 15.8798C33.743 15.5451 33.5756 15.1386 33.5756 14.6604V5.44326C33.5756 4.72597 33.7071 4.0804 33.9701 3.50657C34.2332 2.93274 34.5679 2.44259 34.9744 2.03613C35.3808 1.62966 35.8471 1.31883 36.3731 1.10365C36.8991 0.864551 37.4251 0.745003 37.9511 0.745003H56.6724C57.3419 0.745003 57.9755 0.876505 58.5732 1.13951C59.171 1.37861 59.697 1.71334 60.1513 2.14372C60.6055 2.57409 60.9642 3.0762 61.2272 3.65003C61.4902 4.22386 61.6217 4.84551 61.6217 5.51499C61.6217 5.99318 61.4543 6.39964 61.1196 6.73438C60.7849 7.06912 60.3784 7.23648 59.9002 7.23648C59.422 7.23648 59.0156 7.06912 58.6808 6.73438C58.3461 6.39964 58.1787 5.99318 58.1787 5.51499C58.1787 5.15634 58.0472 4.85747 57.7842 4.61837C57.5451 4.37928 57.2582 4.23582 56.9235 4.188H38.1304C37.8196 4.188 37.5686 4.27168 37.3773 4.43905C37.186 4.58251 37.0665 4.76183 37.0186 4.97702V6.84197H44.335C46.4391 6.84197 48.3399 6.96152 50.0375 7.20062C51.7351 7.43972 53.2653 7.83423 54.6281 8.38415C56.0149 8.91016 57.2462 9.6155 58.3222 10.5002C59.422 11.3609 60.4023 12.4249 61.2631 13.6921C61.5022 14.0029 61.6217 14.3257 61.6217 14.6604Z" fill="white"/>
<path d="M75.8182 12.5086C75.8182 11.8869 76.0334 11.3609 76.4637 10.9305C76.8941 10.5002 77.4201 10.285 78.0418 10.285C78.6634 10.285 79.1894 10.5002 79.6198 10.9305C80.0502 11.3609 80.2654 11.8869 80.2654 12.5086C80.2654 13.1302 80.0502 13.6562 79.6198 14.0866C79.1894 14.517 78.6634 14.7322 78.0418 14.7322C77.4201 14.7322 76.8941 14.517 76.4637 14.0866C76.0334 13.6562 75.8182 13.1302 75.8182 12.5086ZM68.2508 15.7364C67.8921 16.1668 67.4498 16.3819 66.9238 16.3819C66.4456 16.3819 66.0391 16.2146 65.7044 15.8798C65.3697 15.5451 65.2023 15.1386 65.2023 14.6604C65.2023 14.2301 65.3218 13.8834 65.5609 13.6204L74.276 1.89267C74.6825 1.34274 75.2204 0.900415 75.8899 0.56568C76.5594 0.207033 77.2767 0.02771 78.0418 0.02771C78.7591 0.02771 79.4405 0.183124 80.0861 0.49395C80.7316 0.804776 81.2576 1.23515 81.6641 1.78507L90.3792 13.441C90.5226 13.6084 90.6422 13.7997 90.7378 14.0149C90.8335 14.2062 90.8813 14.4213 90.8813 14.6604C90.8813 15.1386 90.7139 15.5451 90.3792 15.8798C90.0444 16.2146 89.638 16.3819 89.1598 16.3819C88.586 16.3819 88.1317 16.1548 87.7969 15.7005L79.4405 4.54664C79.2731 4.35537 79.0579 4.15213 78.7949 3.93695C78.5558 3.69785 78.3048 3.5783 78.0418 3.5783C77.7788 3.5783 77.5158 3.69785 77.2528 3.93695C77.0137 4.15213 76.8224 4.35537 76.6789 4.54664L68.2508 15.7364Z" fill="white"/>
<path d="M93.5717 8.56347C93.5717 7.6549 93.7151 6.74633 94.0021 5.83777C94.3129 4.90529 94.7552 4.06845 95.329 3.32725C95.9029 2.56214 96.5963 1.94049 97.4092 1.46229C98.2221 0.984099 99.1426 0.745003 100.171 0.745003H121.08C121.558 0.745003 121.964 0.91237 122.299 1.2471C122.634 1.58184 122.801 1.98831 122.801 2.4665C122.801 2.94469 122.634 3.35116 122.299 3.68589C121.964 4.02063 121.558 4.188 121.08 4.188H100.924C100.087 4.188 99.4057 4.34341 98.8796 4.65424C98.3775 4.94115 97.9711 5.2998 97.6602 5.73017C97.3733 6.16055 97.1701 6.63874 97.0505 7.16475C96.9549 7.66686 96.9071 8.1331 96.9071 8.56347C96.9071 8.99384 96.9549 9.47204 97.0505 9.99805C97.1701 10.5002 97.3733 10.9664 97.6602 11.3968C97.9711 11.8271 98.3775 12.1977 98.8796 12.5086C99.4057 12.7955 100.087 12.9389 100.924 12.9389H121.08C121.558 12.9389 121.964 13.1063 122.299 13.441C122.634 13.7758 122.801 14.1822 122.801 14.6604C122.801 15.1386 122.634 15.5451 122.299 15.8798C121.964 16.2146 121.558 16.3819 121.08 16.3819H99.8121C98.8318 16.3819 97.9591 16.1428 97.194 15.6646C96.4289 15.1865 95.7714 14.5768 95.2215 13.8356C94.6954 13.0704 94.289 12.2217 94.0021 11.2892C93.7151 10.3567 93.5717 9.44813 93.5717 8.56347Z" fill="white"/>
<path d="M131.303 16.3819C130.633 16.3819 130 16.2624 129.402 16.0233C128.804 15.7603 128.278 15.4136 127.824 14.9832C127.393 14.5528 127.047 14.0507 126.784 13.4769C126.521 12.9031 126.389 12.2814 126.389 11.612V2.4665C126.389 1.98831 126.557 1.58184 126.891 1.2471C127.226 0.91237 127.632 0.745003 128.111 0.745003C128.565 0.745003 128.959 0.91237 129.294 1.2471C129.653 1.58184 129.832 1.98831 129.832 2.4665V11.612C129.832 11.9706 129.964 12.2814 130.227 12.5444C130.514 12.8074 130.836 12.9389 131.195 12.9389H152.714C153.192 12.9389 153.598 13.1063 153.933 13.441C154.268 13.7758 154.435 14.1822 154.435 14.6604C154.435 15.1386 154.268 15.5451 153.933 15.8798C153.598 16.2146 153.192 16.3819 152.714 16.3819H131.303Z" fill="white"/>
<path d="M183.659 6.84197C184.137 6.84197 184.544 7.00934 184.878 7.34408C185.213 7.67881 185.38 8.08528 185.38 8.56347C185.38 9.04166 185.213 9.44813 184.878 9.78287C184.544 10.1176 184.137 10.285 183.659 10.285H165.798C165.32 10.285 164.914 10.1176 164.579 9.78287C164.244 9.44813 164.077 9.04166 164.077 8.56347C164.077 8.08528 164.244 7.67881 164.579 7.34408C164.914 7.00934 165.32 6.84197 165.798 6.84197H183.659ZM165.404 4.188C164.567 4.188 163.886 4.34341 163.36 4.65424C162.857 4.94115 162.451 5.2998 162.14 5.73017C161.853 6.16055 161.65 6.63874 161.531 7.16475C161.435 7.66686 161.387 8.1331 161.387 8.56347C161.387 8.99384 161.435 9.47204 161.531 9.99805C161.65 10.5002 161.853 10.9664 162.14 11.3968C162.451 11.8271 162.857 12.1977 163.36 12.5086C163.886 12.7955 164.567 12.9389 165.404 12.9389H185.165C185.643 12.9389 186.05 13.1063 186.385 13.441C186.719 13.7758 186.887 14.1822 186.887 14.6604C186.887 15.1386 186.719 15.5451 186.385 15.8798C186.05 16.2146 185.643 16.3819 185.165 16.3819H164.256C163.276 16.3819 162.403 16.1428 161.638 15.6646C160.873 15.1865 160.215 14.5768 159.666 13.8356C159.14 13.0704 158.733 12.2217 158.446 11.2892C158.159 10.3567 158.016 9.44813 158.016 8.56347C158.016 7.6549 158.159 6.74633 158.446 5.83777C158.757 4.90529 159.199 4.06845 159.773 3.32725C160.347 2.56214 161.04 1.94049 161.853 1.46229C162.666 0.984099 163.587 0.745003 164.615 0.745003H185.165C185.643 0.745003 186.05 0.91237 186.385 1.2471C186.719 1.58184 186.887 1.98831 186.887 2.4665C186.887 2.94469 186.719 3.35116 186.385 3.68589C186.05 4.02063 185.643 4.188 185.165 4.188H165.404Z" fill="white"/>
</svg>
